PathFileType	4	(X/Y/Z)	C:\Users\willi\Desktop\Data_PaperCallum_v2\17_Akif\Gait05\marker_experimental_temp.trc
DataRate	CameraRate	NumFrames	NumMarkers	Units	OrigDataRate	OrigDataStartFrame	OrigNumFrames
100.000000	100.000000	4	27	mm	100.000000	26	213
Frame#	Time	C7			T10			Clav			Sternum			Right_Back			PCL_CRAN			PCL_RECHTS			PCL_LINKS			RCL_UL_CRAN			RCL_UL_POST			RCL_UL_ANT			RCL_LL_CRAN			RCL_LL_POST			RCL_LL_ANT			Right_Heel			Right_Toe			Right_M5			LCL_UL_CRAN			LCL_UL_POST			LCL_UL_ANT			LCL_LL_CRAN			LCL_LL_POST			LCL_LL_ANT			Left_Heel			Left_Toe			Left_M5			*26			
		X1	Y1	Z1	X2	Y2	Z2	X3	Y3	Z3	X4	Y4	Z4	X5	Y5	Z5	X6	Y6	Z6	X7	Y7	Z7	X8	Y8	Z8	X9	Y9	Z9	X10	Y10	Z10	X11	Y11	Z11	X12	Y12	Z12	X13	Y13	Z13	X14	Y14	Z14	X15	Y15	Z15	X16	Y16	Z16	X17	Y17	Z17	X18	Y18	Z18	X19	Y19	Z19	X20	Y20	Z20	X21	Y21	Z21	X22	Y22	Z22	X23	Y23	Z23	X24	Y24	Z24	X25	Y25	Z25	X26	Y26	Z26	X27	Y27	Z27	

27	0.26	1449.58251953125	1378.778564453125	159.239532470703	1484.098266601563	1160.598388671875	166.3358306884765	1308.664794921875	1307.763916015625	185.3584442138671	1246.651611328125	1145.178955078125	201.7112731933593	1466.8388671875	1314.3818359375	40.58014297485342	1471.794189453125	991.9863891601564	174.042984008789	1481.111206054688	932.9605102539064	150.2198944091796	1481.01708984375	932.1909179687501	200.897720336914	1414.093139648438	706.6565551757814	5.052918910980138	1445.31982421875	649.8809204101564	12.11692142486563	1395.938232421875	643.7940673828126	4.843187808990393	1566.434936523438	381.1345214843751	37.93358612060538	1616.179443359375	338.2285156250001	36.66547012329092	1571.948852539063	316.0091857910157	41.34794998168935	1775.399780273438	86.18271636962902	127.0852966308593	1584.994995117188	32.41925430297862	131.2411651611327	1633.867065429688	11.54024410247813	75.26087188720693	1307.939331054688	726.8045043945314	350.5249633789062	1300.363159179688	661.7652587890626	345.9529724121093	1256.957397460938	685.2918090820314	350.0351257324218	1200.418212890625	366.2324523925782	314.5994262695312	1202.363525390625	300.6436767578126	311.4345092773437	1156.042114257813	318.5262145996094	312.1863098144531	1143.2880859375	21.28030776977546	227.9114532470703	954.0829467773438	81.18422698974615	250.340103149414	988.9622192382813	40.53167724609381	299.6512756347656	-88.0606842041018	726.5230712890625	-3209.728759765625	
28	0.27	1435.5361328125	1378.337280273438	160.7784118652343	1469.270874023438	1159.935424804688	167.5729675292968	1294.305419921875	1307.678833007813	186.5912933349609	1231.551879882813	1145.32666015625	202.6393280029296	1452.966796875	1313.948608398438	42.15484237670889	1456.160888671875	991.6571044921876	174.8240356445312	1465.509765625	932.5140991210939	151.4120483398437	1465.375366210938	932.0194091796876	202.0836639404296	1398.221557617188	705.5374755859376	6.019899845123206	1429.596557617188	648.8106689453126	12.62604618072501	1380.224975585938	642.7412719726564	5.285309791564857	1552.943359375	381.7355957031251	36.74580764770499	1604.63330078125	340.7677612304689	35.9436035156249	1560.695068359375	316.9027404785157	40.05021286010733	1770.65576171875	94.99689483642589	126.0065841674804	1585.72509765625	31.76868438720713	131.2613372802734	1634.87939453125	11.78260993957529	75.83549499511709	1291.305786132813	727.4304199218751	351.3648071289062	1283.303466796875	662.5563354492189	346.2970886230468	1239.967529296875	686.1229248046876	350.0470886230468	1186.6259765625	366.0391235351563	314.6096496582031	1189.96240234375	300.5187377929688	311.3607482910156	1143.384765625	317.3256530761719	311.4479064941406	1141.866088867188	21.84397315979011	227.4501190185546	949.1123657226563	72.13393402099615	245.9800720214843	985.7062377929688	33.92533493041998	296.9222717285156	nan	nan	nan	
29	0.28	1421.474487304688	1378.176879882813	162.3398895263671	1454.43115234375	1159.563720703125	168.8024139404296	1279.932861328125	1307.87646484375	187.776870727539	1216.431762695313	1145.769165039063	203.4964904785155	1439.130859375	1313.815063476563	43.75979614257804	1440.524536132813	991.6417846679689	175.5672912597655	1449.908569335938	932.3677978515626	152.5876922607421	1449.740234375	932.1698608398439	203.2525787353515	1381.7822265625	704.4661865234376	6.978629589080726	1413.108154296875	647.7016601562501	13.11849975585929	1363.72900390625	641.7835083007814	5.735685825347817	1538.090942382813	382.3148803710939	35.38560867309561	1591.74462890625	343.4303588867189	35.11160278320303	1548.106567382813	317.8460388183595	38.56309127807608	1764.41064453125	104.8718795776368	124.8775787353514	1586.559936523438	31.19026756286631	131.382339477539	1635.734619140625	12.53762626647959	76.46343994140615	1274.858276367188	728.4011230468751	352.2688598632812	1266.6259765625	663.6677246093751	346.7335815429687	1223.291259765625	687.2224731445314	350.1242980957031	1173.374145507813	366.0522766113282	314.7885131835937	1178.02587890625	300.6815490722657	311.6184082031249	1131.097290039063	316.5158386230469	310.9716186523437	1140.92138671875	22.87049484252937	227.329849243164	944.8134765625	63.39884185791021	242.2950134277343	983.20458984375	27.83216857910162	294.9429626464843	nan	nan	nan	
30	0.29	1407.404418945313	1378.3017578125	163.9134368896484	1439.599243164063	1159.491088867188	170.0233917236327	1265.557861328125	1308.35498046875	188.906753540039	1201.31689453125	1146.498657226563	204.2762298583984	1425.337158203125	1313.985473632813	45.38416671752921	1424.922485351563	991.9385986328126	176.2854614257812	1434.3427734375	932.5236206054689	153.749053955078	1434.145385742188	932.6370239257814	204.4070739746093	1364.799926757813	703.4602661132814	7.903050899505532	1395.854248046875	646.5578002929689	13.57508754730216	1346.451904296875	640.9377441406251	6.163025379180826	1521.758178710938	382.8507385253907	33.85461044311514	1577.304077148438	346.1271362304689	34.12059020996084	1534.022827148438	318.8048400878907	36.90355682373038	1756.462524414063	115.7506332397462	123.6539154052733	1587.276489257813	30.82154846191416	131.5932312011718	1636.121704101563	13.99295520782481	77.07923126220693	1258.69873046875	729.6693725585939	353.2393798828124	1250.460083007813	665.0439453125001	347.3011779785156	1207.0556640625	688.5223388671876	350.3243103027343	1160.72119140625	366.2471313476563	315.1231689453124	1166.586791992188	301.1117248535157	312.2008972167968	1119.230834960938	316.0694885253907	310.7294311523437	1140.181762695313	24.23532104492195	227.4854583740234	941.0796508789063	55.4195289611817	239.320816040039	981.2325439453125	22.56036376953131	293.6872863769531	nan	nan	nan	
